<?xml version="1.0" standalone="no"?>
<!DOCTYPE svg PUBLIC "-//W3C//DTD SVG 20010904//EN"
 "http://www.w3.org/TR/2001/REC-SVG-20010904/DTD/svg10.dtd">
<svg version="1.0" xmlns="http://www.w3.org/2000/svg"
 width="1080.000000pt" height="1080.000000pt" viewBox="0 0 1080.000000 1080.000000"
 preserveAspectRatio="xMidYMid meet">

<g transform="translate(0.000000,1080.000000) scale(0.100000,-0.100000)"
fill="#000000" stroke="none">
<path d="M5349 7233 c-43 -7 -71 -46 -85 -120 -17 -89 -17 -90 6 -113 18 -18
33 -20 180 -20 214 0 220 3 250 138 25 109 4 123 -188 121 -75 -1 -149 -4
-163 -6z m84 -19 l37 -7 -92 -64 c-102 -70 -112 -68 -86 12 10 32 20 42 48 52
42 14 45 14 93 7z"/>
<path d="M6051 7225 c-50 -16 -95 -55 -121 -106 -10 -19 -51 -179 -90 -355
-209 -934 -281 -1274 -282 -1326 -1 -66 16 -99 65 -125 30 -17 95 -18 1047
-18 957 0 1018 1 1062 18 55 21 99 68 122 128 9 24 56 235 106 469 49 234 123
582 165 773 83 385 90 455 53 502 -45 57 -2 55 -1085 54 -813 0 -1006 -3
-1042 -14z m636 -69 c1 -1 -198 -202 -442 -446 l-444 -443 35 164 c99 468 133
607 158 646 39 59 77 77 181 83 74 5 505 1 512 -4z"/>
<path d="M3124 6862 c-52 -7 -60 -31 -143 -418 -68 -312 -219 -1008 -236
-1081 -3 -15 2 -30 15 -43 18 -18 33 -20 170 -20 152 0 187 7 207 39 6 10 28
93 47 185 20 91 65 298 100 458 36 161 66 304 68 318 6 48 23 20 35 -56 7 -43
28 -231 48 -418 48 -464 51 -486 69 -505 13 -13 44 -15 176 -15 l160 0 29 29
c16 17 73 122 126 235 121 258 362 730 381 750 14 13 15 12 10 -10 -3 -14 -51
-240 -107 -503 -79 -371 -99 -481 -90 -490 8 -8 65 -13 174 -15 187 -3 205 2
225 63 21 66 322 1426 322 1456 0 15 -6 29 -14 32 -7 3 -142 7 -300 8 -271 3
-287 2 -313 -17 -30 -21 -52 -63 -318 -609 -91 -187 -171 -340 -178 -340 -8 0
-23 119 -49 400 -21 220 -40 428 -44 462 -10 108 2 103 -294 106 -140 1 -265
1 -276 -1z"/>
<path d="M1783 6846 c-102 -32 -182 -112 -213 -215 -32 -104 -71 -310 -72
-376 -2 -108 55 -178 180 -225 31 -12 160 -50 287 -86 126 -35 247 -72 269
-81 l39 -17 -6 -67 c-3 -36 -12 -82 -21 -102 -25 -62 -48 -67 -279 -67 -239 0
-233 -2 -220 87 9 69 7 94 -10 105 -17 11 -301 10 -330 -1 -32 -12 -40 -35
-82 -235 -39 -184 -39 -217 3 -244 24 -15 70 -17 522 -17 l495 0 62 26 c71 30
107 57 151 115 36 46 52 88 88 224 42 158 55 271 40 329 -32 124 -104 164
-461 255 -278 71 -295 77 -314 100 -20 24 3 148 34 184 l23 27 204 -3 c111 -2
207 -6 212 -9 8 -5 5 -44 -9 -109 -6 -25 -2 -37 14 -53 19 -19 32 -21 170 -21
127 0 152 3 170 18 17 13 31 60 66 211 24 107 42 205 39 218 -4 13 -14 28 -24
33 -30 16 -975 12 -1027 -4z"/>
<path d="M5233 6845 c-12 -8 -26 -30 -32 -48 -6 -17 -78 -340 -161 -717 -164
-746 -163 -741 -240 -781 -44 -23 -125 -39 -196 -39 -81 0 -96 -20 -128 -160
-14 -63 -28 -125 -32 -137 -4 -14 1 -28 17 -44 21 -21 26 -22 164 -16 249 12
396 66 521 192 90 90 143 193 183 355 35 140 301 1345 301 1365 0 7 -7 21 -16
29 -22 23 -349 24 -381 1z"/>
<path d="M8365 6468 c-16 -6 -41 -19 -56 -29 -28 -20 -74 -99 -83 -144 -3 -16
-44 -211 -91 -432 -47 -221 -85 -423 -85 -448 0 -38 5 -52 28 -74 27 -28 30
-28 182 -34 85 -3 272 -5 415 -4 245 2 262 3 300 23 24 13 49 38 62 60 20 37
196 828 210 946 7 57 -9 100 -46 125 -24 16 -59 18 -416 20 -260 1 -400 -2
-420 -9z m105 -283 c-140 -140 -256 -251 -258 -246 -4 12 44 269 65 343 19 70
64 124 118 143 27 10 87 14 185 15 l145 0 -255 -255z"/>
<path d="M1248 5120 c-23 -13 -46 -36 -59 -61 -20 -40 -73 -263 -225 -952 -76
-347 -82 -388 -63 -431 24 -53 33 -54 594 -61 381 -6 531 -4 562 4 56 15 98
53 117 104 23 62 276 1253 276 1299 0 50 -13 74 -53 95 -29 16 -78 18 -572 20
-525 3 -541 2 -577 -17z m962 -1021 c-53 -262 -75 -352 -96 -384 -39 -60 -118
-73 -369 -60 l-148 7 324 324 c178 178 325 322 326 320 2 -2 -15 -95 -37 -207z"/>
<path d="M2732 5110 c-13 -6 -29 -24 -36 -42 -7 -18 -82 -352 -166 -742 -141
-657 -151 -709 -136 -725 15 -14 65 -16 506 -16 476 0 490 1 509 20 27 27 80
280 62 298 -9 9 -95 12 -321 12 -169 0 -312 4 -316 8 -10 9 1 64 132 650 57
258 104 482 104 498 0 22 -6 32 -26 39 -32 12 -281 12 -312 0z"/>
<path d="M3867 5098 c-10 -8 -25 -49 -37 -103 -25 -116 -26 -151 -1 -165 11
-5 76 -10 145 -10 115 0 127 2 150 23 40 34 81 222 56 252 -17 20 -287 22
-313 3z"/>
<path d="M6278 5100 c-17 -10 -59 -165 -60 -223 -2 -50 20 -57 169 -57 126 0
135 1 156 23 29 28 75 221 60 246 -8 13 -35 16 -159 18 -85 2 -156 -2 -166 -7z"/>
<path d="M9593 5098 c-29 -14 -37 -36 -78 -238 -20 -96 -41 -198 -47 -227
l-10 -51 -54 43 c-143 117 -413 114 -593 -6 -115 -77 -189 -180 -239 -335 -58
-176 -74 -395 -38 -504 51 -151 157 -215 356 -214 127 1 208 21 305 73 l71 38
-4 -35 c-7 -56 10 -62 165 -62 127 0 135 1 157 24 16 15 29 48 40 97 9 41 52
243 95 449 44 206 105 489 135 628 59 266 63 301 44 320 -15 15 -273 15 -305
0z m-316 -667 c26 -12 52 -35 70 -62 26 -39 28 -50 28 -138 0 -80 -5 -108 -28
-171 -57 -155 -134 -220 -266 -228 -102 -6 -148 16 -182 85 -43 88 -30 242 32
365 68 135 226 203 346 149z"/>
<path d="M6852 4965 c-12 -15 -25 -56 -32 -98 -28 -173 -37 -187 -125 -187
-43 0 -66 -5 -75 -15 -15 -18 -39 -126 -40 -176 0 -41 13 -49 83 -49 62 0 63
18 -20 -365 -56 -256 -63 -379 -26 -431 39 -54 81 -64 277 -64 212 0 213 0
245 118 23 88 26 127 10 138 -6 3 -45 9 -87 13 -55 4 -78 11 -86 23 -15 24 81
511 107 544 16 21 27 24 92 24 82 0 119 10 134 37 5 10 17 54 25 97 22 102 18
106 -88 106 -44 0 -87 4 -95 9 -12 8 -10 28 10 128 25 124 26 152 6 165 -6 4
-76 8 -154 8 -140 0 -142 0 -161 -25z"/>
<path d="M7885 4710 c-255 -28 -420 -136 -518 -340 -74 -154 -91 -229 -92
-405 0 -150 0 -151 33 -217 50 -102 118 -141 301 -173 323 -57 669 57 751 247
12 27 20 62 18 76 l-3 27 -147 3 -147 3 -33 -29 c-71 -62 -113 -76 -228 -77
-129 0 -162 14 -192 82 -22 51 -21 129 3 144 8 5 184 9 392 8 345 0 381 1 398
17 24 21 36 65 50 177 18 148 -15 270 -93 344 -87 84 -306 134 -493 113z m181
-265 c64 -27 87 -136 34 -162 -37 -19 -393 -18 -409 0 -17 21 27 96 75 129 78
55 213 70 300 33z"/>
<path d="M4840 4695 c-30 -8 -94 -35 -142 -59 l-88 -44 0 39 c0 54 -20 60
-177 53 -149 -6 -157 -10 -173 -93 -7 -31 -54 -255 -106 -499 -52 -244 -94
-454 -94 -467 0 -14 8 -29 19 -35 11 -5 80 -10 154 -10 114 0 138 3 156 18 17
14 33 74 91 349 38 183 78 350 89 370 52 102 186 153 269 103 65 -40 65 -42
-28 -479 -33 -155 -60 -295 -60 -311 0 -19 7 -33 19 -40 11 -5 78 -10 149 -10
115 0 132 2 155 20 28 22 22 0 107 408 54 254 66 296 107 350 63 83 221 106
268 39 8 -12 15 -38 15 -59 0 -21 -31 -185 -70 -364 -38 -180 -70 -337 -70
-350 0 -39 30 -46 180 -42 112 2 143 6 156 19 17 18 45 137 129 555 57 281 63
337 44 395 -34 101 -119 151 -270 157 -145 6 -265 -31 -367 -115 l-43 -35 -17
23 c-28 42 -76 82 -122 102 -59 27 -202 33 -280 12z"/>
<path d="M6308 4683 c-148 -4 -139 3 -162 -118 -8 -44 -56 -271 -106 -504 -50
-234 -89 -435 -86 -447 8 -29 30 -34 173 -34 178 0 156 -35 254 415 151 700
148 685 110 685 -9 0 -25 2 -36 3 -11 2 -77 2 -147 0z"/>
<path d="M3768 4663 c-13 -15 -211 -910 -226 -1019 -7 -56 13 -64 153 -64 133
0 168 7 185 40 18 33 221 989 218 1024 l-3 31 -156 3 c-138 2 -157 1 -171 -15z"/>
</g>
</svg>
